<svg xmlns="http://www.w3.org/2000/svg" width="10" height="10" viewBox="0 0 10 10" fill="none">
<path d="M9.59937 9.84951C9.59937 10.0704 9.42028 10.2495 9.19937 10.2495H8.80015C8.57923 10.2495 8.40015 10.0704 8.40015 9.84951V3.91246C8.40015 3.5561 7.96929 3.37763 7.7173 3.62962L1.58143 9.7655C1.42522 9.92171 1.17195 9.92171 1.01574 9.7655L0.73377 9.48353C0.577561 9.32732 0.577561 9.07405 0.73377 8.91784L6.86965 2.78196C7.12163 2.52998 6.94317 2.09912 6.5868 2.09912H0.649756C0.428842 2.09912 0.249756 1.92004 0.249756 1.69912V1.2999C0.249756 1.07899 0.428842 0.899902 0.649756 0.899902H9.19937C9.42028 0.899902 9.59937 1.07899 9.59937 1.2999V9.84951Z" fill="#1C1C1C"/>
</svg>
