<svg xmlns="http://www.w3.org/2000/svg" width="18" height="18" viewBox="0 0 18 19" fill="none"><path d="M9 1a8.5 8.5 0 1 1 .001 17A8.5 8.5 0 0 1 9 1zm3.556 4.976a1.25 1.25 0 0 0-.803.149l-.058.033-.047.046-3.986 3.93-1.356-1.356-.059-.033a1.25 1.25 0 0 0-1.667 1.767l.027.042.035.035 2.13 2.19.002.002a1.24 1.24 0 0 0 .88.368v.001h.008a1.231 1.231 0 0 0 .882-.367l4.847-4.846.029-.045a1.25 1.25 0 0 0-.864-1.916z" fill="url(#a)" stroke="url(#b)"/><defs><linearGradient id="a" x1="12.704" y1="-11.536" x2="12.704" y2="32.915" gradientUnits="userSpaceOnUse"><stop stop-color="#D4B26F"/><stop offset="1" stop-color="#A87C25"/></linearGradient><linearGradient id="b" x1="12.704" y1="-11.536" x2="12.704" y2="32.915" gradientUnits="userSpaceOnUse"><stop stop-color="#D4B26F"/><stop offset="1" stop-color="#A87C25"/></linearGradient></defs></svg>