<?xml version="1.0" encoding="UTF-8"?>
<svg xmlns="http://www.w3.org/2000/svg" fill="none" viewBox="0 0 20 20"><path d="M17 5.17A8.3 8.3 0 005.61 2.56a8.4 8.4 0 00-2.56 11.49l.2.31-.82 3.13 3.08-.83.31.2a8.3 8.3 0 008.61-.1A8.6 8.6 0 0017 5.17m-2.16 8.04a2.3 2.3 0 01-1.64 1.15c-.41 0-.92.21-2.97-.63a10.5 10.5 0 01-4.21-3.76 5 5 0 01-1.03-2.61c0-.83.31-1.56.83-2.08q.3-.32.61-.32h.51c.21 0 .41 0 .52.42.2.52.72 1.78.72 1.88.1.1.1.31 0 .42.1.21 0 .41-.11.52-.1.1-.2.31-.31.42-.2.1-.3.31-.2.52.41.63.92 1.25 1.44 1.77.61.53 1.23.94 1.95 1.26.2.1.41.1.51-.11s.61-.73.82-.94.31-.21.51-.1l1.64.83q.34.16.52.32c.1.31.1.73-.11 1.04" fill="white"/></svg>