<?xml version="1.0" encoding="UTF-8"?>
<svg xmlns="http://www.w3.org/2000/svg" fill="none" viewBox="0 0 20 20"><path d="M16.9996 5.17135C14.5371 1.30847 9.50948.16004 5.61052 2.5613 1.81416 4.96255.582913 10.1827 3.04541 14.0456l.20521.3132-.82083 3.132 3.07813-.8352.30781.2088c1.33385.7308 2.77031 1.1484 4.20677 1.1484 1.5391 0 3.0781-.4176 4.412-1.2528 3.7963-2.5056 4.925-7.62135 2.5651-11.58865m-2.1547 8.03895c-.4104.6265-.9234 1.0441-1.6417 1.1485-.4104 0-.9234.2088-2.9755-.6264-1.74426-.8353-3.18072-2.1925-4.20676-3.75853-.61563-.73082-.92344-1.67044-1.02605-2.61006 0-.83522.30782-1.56604.82084-2.08805.20521-.20881.41042-.31321.61562-.31321h.51302c.20521 0 .41042 0 .51303.41761.2052.52201.71823 1.77484.71823 1.87924.1026.10441.1026.31321 0 .41761.1026.20881 0 .41761-.10261.52202-.1026.1044-.20521.3132-.30781.4176-.20521.10441-.30781.31321-.20521.52202.41042.62641.92344 1.25285 1.43646 1.77485.61562.522 1.23124.9396 1.94944 1.2528.2052.1044.4105.1044.5131-.1044s.6156-.7308.8208-.9396.3078-.2088.513-.1044l1.6417.8352c.2052.1044.4104.2088.513.3132.1026.3132.1026.7308-.1026 1.044" fill="#75B252"/></svg>